<?xml version="1.0" standalone="no"?>
<!DOCTYPE svg PUBLIC "-//W3C//DTD SVG 1.1//EN" "http://www.w3.org/Graphics/SVG/1.1/DTD/svg11.dtd"><svg class="icon"
  width="200px" height="200.00px" viewBox="0 0 1024 1024" version="1.1" xmlns="http://www.w3.org/2000/svg">
  <path
    d="M469.333333 442.609778v138.780444a8.533333 8.533333 0 0 0 13.269334 7.111111l104.078222-69.404444a8.533333 8.533333 0 0 0 0-14.193778l-104.078222-69.404444a8.533333 8.533333 0 0 0-13.269334 7.111111z" />
  <path
    d="M512 192c176.725333 0 320 143.274667 320 320 0 41.841778-8.049778 82.602667-23.495111 120.561778a21.333333 21.333333 0 1 1-39.509333-16.085334A276.48 276.48 0 0 0 789.333333 512c0-153.173333-124.16-277.333333-277.333333-277.333333S234.666667 358.826667 234.666667 512 358.826667 789.333333 512 789.333333a275.911111 275.911111 0 0 0 156.202667-48.142222 21.333333 21.333333 0 1 1 24.064 35.242667A318.577778 318.577778 0 0 1 512 832c-176.725333 0-320-143.274667-320-320S335.274667 192 512 192z" />
</svg>