<?xml version="1.0" standalone="no"?><!DOCTYPE svg PUBLIC "-//W3C//DTD SVG 1.1//EN" "http://www.w3.org/Graphics/SVG/1.1/DTD/svg11.dtd"><svg class="icon" width="200px" height="200.00px" viewBox="0 0 1024 1024" version="1.1" xmlns="http://www.w3.org/2000/svg"><path d="M727.836444 270.563556a8.533333 8.533333 0 0 1 9.856-1.592889l2.204445 1.592889 64.739555 64.739555a8.533333 8.533333 0 0 1 1.592889 9.856l-1.592889 2.204445-64.739555 64.739555a8.533333 8.533333 0 0 1-14.264889-3.768889l-0.298667-2.275555-0.042666-43.235556h-86.371556l-6.058667 0.113778c-47.175111 1.749333-67.740444 24.888889-87.210666 93.525333l-5.063111 18.944-12.686223 52.707556c-17.166222 68.053333-35.029333 106.24-70.897777 135.623111a21.333333 21.333333 0 1 1-27.036445-32.995556c23.409778-19.2 37.660444-45.838222 50.915556-92.060444l3.057778-11.022222 5.674666-22.556445 7.153778-30.250666 5.347556-20.878223c25.272889-93.44 55.253333-131.185778 128.753777-133.674666l8.049778-0.142223h86.371556L725.333333 276.622222a8.533333 8.533333 0 0 1 1.137778-4.266666l1.365333-1.777778z"  /><path d="M524.088889 234.666667a21.333333 21.333333 0 0 1 3.84 42.325333l-3.84 0.341333h-209.066667c-61.326222 0-79.061333 16.910222-80.284444 80.796445L234.666667 658.289778c0 67.555556 15.459556 86.954667 73.472 88.305778l6.883555 0.071111h351.288889c61.326222 0 79.061333-16.910222 80.284445-80.796445l0.071111-7.580444v-141.667556a21.333333 21.333333 0 0 1 42.325333-3.84l0.341333 3.84v141.653334c0 89.813333-32.597333 128.455111-114.389333 130.929777l-8.632889 0.128h-351.288889c-85.191111 0-120.632889-35.640889-122.908444-121.941333l-0.113778-9.102222V365.710222c0-89.799111 32.597333-128.426667 114.389333-130.915555l8.632889-0.128h209.066667z"  /></svg>